<svg width="24" height="24" viewBox="0 0 24 24" fill="none" xmlns="http://www.w3.org/2000/svg">
<path d="M3 12.125C3 11.5037 3.50368 11 4.125 11H6.375C6.99632 11 7.5 11.5037 7.5 12.125V19.875C7.5 20.4963 6.99632 21 6.375 21H4.125C3.50368 21 3 20.4963 3 19.875V12.125Z" stroke="#0F172A" stroke-width="1.5" stroke-linecap="round" stroke-linejoin="round"/>
<path d="M9.75 8.625C9.75 8.00368 10.2537 7.5 10.875 7.5H13.125C13.7463 7.5 14.25 8.00368 14.25 8.625V19.875C14.25 20.4963 13.7463 21 13.125 21H10.875C10.2537 21 9.75 20.4963 9.75 19.875V8.625Z" stroke="#0F172A" stroke-width="1.5" stroke-linecap="round" stroke-linejoin="round"/>
<path d="M16.5 14.125C16.5 13.5037 17.0037 13 17.625 13H19.875C20.4963 13 21 13.5037 21 14.125V19.875C21 20.4963 20.4963 21 19.875 21H17.625C17.0037 21 16.5 20.4963 16.5 19.875V14.125Z" stroke="#0F172A" stroke-width="1.5" stroke-linecap="round" stroke-linejoin="round"/>
</svg>
