<svg width="6400" height="1418" viewBox="0 0 6400 1418" fill="none" xmlns="http://www.w3.org/2000/svg">
<g clip-path="url(#clip0_8_109)">
<rect width="6400" height="1418" rx="709" fill="#FFFC00"/>
<path d="M0 0C11414.9 0 22829.9 0 34590.7 0C34590.7 467.94 34590.7 935.88 34590.7 1418C23175.8 1418 11760.8 1418 0 1418C0 950.06 0 482.12 0 0Z" fill="#FFFC00"/>
<mask id="path-4-outside-1_8_109" maskUnits="userSpaceOnUse" x="448.077" y="380" width="5454" height="779" fill="black">
<rect fill="white" x="448.077" y="380" width="5454" height="779"/>
<path d="M478.077 1113V425H952.077V577H693.077V716H933.077V850H693.077V1113H478.077ZM1143.74 1113V425H1359.74V955H1603.74L1593.74 1113H1143.74ZM1729.11 1113L1919.11 425H2243.11L2442.11 1113H2197.11L2171.11 981H1993.11L1964.11 1113H1729.11ZM2014.11 858H2147.11L2082.11 557L2014.11 858ZM2922.16 1129C2850.16 1129 2787.5 1114.33 2734.16 1085C2681.5 1055.67 2640.5 1015 2611.16 963C2581.83 911 2567.16 851 2567.16 783C2567.16 710.333 2582.5 646 2613.16 590C2643.83 534 2686.83 490 2742.16 458C2797.5 426 2861.83 410 2935.16 410C3015.16 410 3078.83 426 3126.16 458L3096.16 615C3054.16 597 3010.5 588 2965.16 588C2910.5 588 2867.5 604.333 2836.16 637C2804.83 669.667 2789.16 715 2789.16 773C2789.16 831.667 2803.16 877.333 2831.16 910C2859.83 942.667 2896.16 959 2940.16 959C2956.16 959 2969.5 957.667 2980.16 955V784L3153.16 764V1077C3115.16 1094.33 3076.5 1107.33 3037.16 1116C2997.83 1124.67 2959.5 1129 2922.16 1129ZM3450.88 1113V583H3295.88V425H3838.88V583H3683.88V1113H3450.88ZM4532.48 1129C4484.48 1129 4444.81 1122 4413.48 1108C4382.14 1093.33 4357.14 1073.33 4338.48 1048C4319.81 1022.67 4305.81 993 4296.48 959C4287.14 925 4280.81 888.333 4277.48 849H4230.48V1113H4011.48V425H4294.48C4403.81 425 4482.48 444.333 4530.48 483C4579.14 521 4603.48 572.667 4603.48 638C4603.48 677.333 4592.81 712.667 4571.48 744C4550.14 774.667 4515.81 800.333 4468.48 821C4471.14 835.667 4473.48 847.667 4475.48 857C4477.48 866.333 4480.48 876.667 4484.48 888C4493.14 912 4503.81 928.667 4516.48 938C4529.81 947.333 4547.81 952 4570.48 952C4585.14 952 4599.81 950 4614.48 946L4626.48 1110C4613.14 1115.33 4598.81 1119.67 4583.48 1123C4568.81 1127 4551.81 1129 4532.48 1129ZM4230.48 712H4268.48C4317.81 712 4352.48 706.667 4372.48 696C4393.14 684.667 4403.48 665.667 4403.48 639C4403.48 616.333 4395.14 600 4378.48 590C4361.81 579.333 4335.48 574 4299.48 574H4230.48V712ZM4797.26 1113V425H5023.26V1113H4797.26ZM5391.19 1113L5187.19 425H5423.19L5529.19 854L5635.19 425H5861.19L5646.19 1113H5391.19Z"/>
</mask>
<path d="M478.077 1113V425H952.077V577H693.077V716H933.077V850H693.077V1113H478.077ZM1143.74 1113V425H1359.74V955H1603.74L1593.74 1113H1143.74ZM1729.11 1113L1919.11 425H2243.11L2442.11 1113H2197.11L2171.11 981H1993.11L1964.11 1113H1729.11ZM2014.11 858H2147.11L2082.11 557L2014.11 858ZM2922.16 1129C2850.16 1129 2787.5 1114.33 2734.16 1085C2681.5 1055.67 2640.5 1015 2611.16 963C2581.83 911 2567.16 851 2567.16 783C2567.16 710.333 2582.5 646 2613.16 590C2643.83 534 2686.83 490 2742.16 458C2797.5 426 2861.83 410 2935.16 410C3015.16 410 3078.83 426 3126.16 458L3096.16 615C3054.16 597 3010.5 588 2965.16 588C2910.5 588 2867.5 604.333 2836.16 637C2804.83 669.667 2789.16 715 2789.16 773C2789.16 831.667 2803.16 877.333 2831.16 910C2859.83 942.667 2896.16 959 2940.16 959C2956.16 959 2969.5 957.667 2980.16 955V784L3153.16 764V1077C3115.16 1094.33 3076.5 1107.33 3037.16 1116C2997.83 1124.67 2959.5 1129 2922.16 1129ZM3450.88 1113V583H3295.88V425H3838.88V583H3683.88V1113H3450.88ZM4532.48 1129C4484.48 1129 4444.81 1122 4413.48 1108C4382.14 1093.33 4357.14 1073.33 4338.48 1048C4319.81 1022.67 4305.81 993 4296.48 959C4287.14 925 4280.81 888.333 4277.48 849H4230.48V1113H4011.48V425H4294.48C4403.81 425 4482.48 444.333 4530.48 483C4579.14 521 4603.48 572.667 4603.48 638C4603.48 677.333 4592.81 712.667 4571.48 744C4550.14 774.667 4515.81 800.333 4468.48 821C4471.14 835.667 4473.48 847.667 4475.48 857C4477.48 866.333 4480.48 876.667 4484.48 888C4493.14 912 4503.81 928.667 4516.48 938C4529.81 947.333 4547.81 952 4570.48 952C4585.14 952 4599.81 950 4614.48 946L4626.48 1110C4613.14 1115.33 4598.81 1119.67 4583.48 1123C4568.81 1127 4551.81 1129 4532.48 1129ZM4230.48 712H4268.48C4317.81 712 4352.48 706.667 4372.48 696C4393.14 684.667 4403.48 665.667 4403.48 639C4403.48 616.333 4395.14 600 4378.48 590C4361.81 579.333 4335.48 574 4299.48 574H4230.48V712ZM4797.26 1113V425H5023.26V1113H4797.26ZM5391.19 1113L5187.19 425H5423.19L5529.19 854L5635.19 425H5861.19L5646.19 1113H5391.19Z" fill="white"/>
<path d="M478.077 1113H448.077V1143H478.077V1113ZM478.077 425V395H448.077V425H478.077ZM952.077 425H982.077V395H952.077V425ZM952.077 577V607H982.077V577H952.077ZM693.077 577V547H663.077V577H693.077ZM693.077 716H663.077V746H693.077V716ZM933.077 716H963.077V686H933.077V716ZM933.077 850V880H963.077V850H933.077ZM693.077 850V820H663.077V850H693.077ZM693.077 1113V1143H723.077V1113H693.077ZM478.077 1113H508.077V425H478.077H448.077V1113H478.077ZM478.077 425V455H952.077V425V395H478.077V425ZM952.077 425H922.077V577H952.077H982.077V425H952.077ZM952.077 577V547H693.077V577V607H952.077V577ZM693.077 577H663.077V716H693.077H723.077V577H693.077ZM693.077 716V746H933.077V716V686H693.077V716ZM933.077 716H903.077V850H933.077H963.077V716H933.077ZM933.077 850V820H693.077V850V880H933.077V850ZM693.077 850H663.077V1113H693.077H723.077V850H693.077ZM693.077 1113V1083H478.077V1113V1143H693.077V1113ZM1143.74 1113H1113.74V1143H1143.74V1113ZM1143.74 425V395H1113.74V425H1143.74ZM1359.74 425H1389.74V395H1359.74V425ZM1359.74 955H1329.74V985H1359.74V955ZM1603.74 955L1633.68 956.895L1635.7 925H1603.74V955ZM1593.74 1113V1143H1621.9L1623.68 1114.89L1593.74 1113ZM1143.74 1113H1173.74V425H1143.74H1113.74V1113H1143.74ZM1143.74 425V455H1359.74V425V395H1143.74V425ZM1359.74 425H1329.74V955H1359.74H1389.74V425H1359.74ZM1359.74 955V985H1603.74V955V925H1359.74V955ZM1603.74 955L1573.8 953.105L1563.8 1111.11L1593.74 1113L1623.68 1114.89L1633.68 956.895L1603.74 955ZM1593.74 1113V1083H1143.74V1113V1143H1593.74V1113ZM1729.11 1113L1700.19 1105.01L1689.7 1143H1729.11V1113ZM1919.11 425V395H1896.27L1890.19 417.014L1919.11 425ZM2243.11 425L2271.93 416.664L2265.66 395H2243.11V425ZM2442.11 1113V1143H2482.02L2470.93 1104.66L2442.11 1113ZM2197.11 1113L2167.67 1118.8L2172.44 1143H2197.11V1113ZM2171.11 981L2200.54 975.202L2195.78 951H2171.11V981ZM1993.11 981V951H1968.98L1963.81 974.563L1993.11 981ZM1964.11 1113V1143H1988.23L1993.41 1119.44L1964.11 1113ZM2014.11 858L1984.85 851.389L1976.57 888H2014.11V858ZM2147.11 858V888H2184.28L2176.43 851.668L2147.11 858ZM2082.11 557L2111.43 550.668L2052.85 550.389L2082.11 557ZM1729.11 1113L1758.03 1120.99L1948.03 432.986L1919.11 425L1890.19 417.014L1700.19 1105.01L1729.11 1113ZM1919.11 425V455H2243.11V425V395H1919.11V425ZM2243.11 425L2214.29 433.336L2413.29 1121.34L2442.11 1113L2470.93 1104.66L2271.93 416.664L2243.11 425ZM2442.11 1113V1083H2197.11V1113V1143H2442.11V1113ZM2197.11 1113L2226.54 1107.2L2200.54 975.202L2171.11 981L2141.67 986.798L2167.67 1118.8L2197.11 1113ZM2171.11 981V951H1993.11V981V1011H2171.11V981ZM1993.11 981L1963.81 974.563L1934.81 1106.56L1964.11 1113L1993.41 1119.44L2022.41 987.437L1993.11 981ZM1964.11 1113V1083H1729.11V1113V1143H1964.11V1113ZM2014.11 858V888H2147.11V858V828H2014.11V858ZM2147.11 858L2176.43 851.668L2111.43 550.668L2082.11 557L2052.78 563.332L2117.78 864.332L2147.11 858ZM2082.11 557L2052.85 550.389L1984.85 851.389L2014.11 858L2043.37 864.611L2111.37 563.611L2082.11 557ZM2734.16 1085L2719.57 1111.21L2719.64 1111.25L2719.71 1111.29L2734.16 1085ZM2611.16 963L2585.03 977.74L2585.03 977.74L2611.16 963ZM2613.16 590L2639.48 604.409L2639.48 604.409L2613.16 590ZM2742.16 458L2727.14 432.03L2727.14 432.03L2742.16 458ZM3126.16 458L3155.63 463.631L3159.34 444.217L3142.97 433.147L3126.16 458ZM3096.16 615L3084.35 642.574L3118.63 657.267L3125.63 620.631L3096.16 615ZM2836.16 637L2857.81 657.767L2857.81 657.767L2836.16 637ZM2831.16 910L2808.39 929.524L2808.5 929.656L2808.61 929.788L2831.16 910ZM2980.16 955L2987.44 984.104L3010.16 978.423V955H2980.16ZM2980.16 784L2976.72 754.198L2950.16 757.268V784H2980.16ZM3153.16 764H3183.16V730.332L3149.72 734.198L3153.16 764ZM3153.16 1077L3165.61 1104.29L3183.16 1096.29V1077H3153.16ZM3037.16 1116L3043.62 1145.3L3043.62 1145.3L3037.16 1116ZM2922.16 1129V1099C2854.29 1099 2796.78 1085.2 2748.62 1058.71L2734.16 1085L2719.71 1111.29C2778.21 1143.47 2846.03 1159 2922.16 1159V1129ZM2734.16 1085L2748.76 1058.79C2700.87 1032.12 2663.88 995.399 2637.29 948.26L2611.16 963L2585.03 977.74C2617.11 1034.6 2662.12 1079.22 2719.57 1111.21L2734.16 1085ZM2611.16 963L2637.29 948.26C2610.83 901.353 2597.16 846.564 2597.16 783H2567.16H2537.16C2537.16 855.436 2552.83 920.647 2585.03 977.74L2611.16 963ZM2567.16 783H2597.16C2597.16 714.665 2611.55 655.413 2639.48 604.409L2613.16 590L2586.85 575.591C2553.45 636.587 2537.16 706.001 2537.16 783H2567.16ZM2613.16 590L2639.48 604.409C2667.5 553.229 2706.59 513.225 2757.18 483.97L2742.16 458L2727.14 432.03C2667.07 466.774 2620.16 514.771 2586.85 575.591L2613.16 590ZM2742.16 458L2757.18 483.97C2807.31 454.978 2866.31 440 2935.16 440V410V380C2857.34 380 2787.68 397.022 2727.14 432.03L2742.16 458ZM2935.16 410V440C3011.49 440 3068.61 455.303 3109.36 482.853L3126.16 458L3142.97 433.147C3089.05 396.697 3018.84 380 2935.16 380V410ZM3126.16 458L3096.7 452.369L3066.7 609.369L3096.16 615L3125.63 620.631L3155.63 463.631L3126.16 458ZM3096.16 615L3107.98 587.426C3062.28 567.838 3014.59 558 2965.16 558V588V618C3006.4 618 3046.05 626.162 3084.35 642.574L3096.16 615ZM2965.16 588V558C2904.15 558 2852.65 576.469 2814.51 616.233L2836.16 637L2857.81 657.767C2882.34 632.198 2916.84 618 2965.16 618V588ZM2836.16 637L2814.51 616.233C2776.43 655.932 2759.16 709.526 2759.16 773H2789.16H2819.16C2819.16 720.473 2833.22 683.402 2857.81 657.767L2836.16 637ZM2789.16 773H2759.16C2759.16 836.219 2774.27 889.722 2808.39 929.524L2831.16 910L2853.94 890.476C2832.06 864.945 2819.16 827.114 2819.16 773H2789.16ZM2831.16 910L2808.61 929.788C2843.06 969.037 2887.65 989 2940.16 989V959V929C2904.68 929 2876.6 916.296 2853.71 890.212L2831.16 910ZM2940.16 959V989C2957.61 989 2973.58 987.568 2987.44 984.104L2980.16 955L2972.89 925.896C2965.41 927.765 2954.71 929 2940.16 929V959ZM2980.16 955H3010.16V784H2980.16H2950.16V955H2980.16ZM2980.16 784L2983.61 813.801L3156.61 793.802L3153.16 764L3149.72 734.198L2976.72 754.198L2980.16 784ZM3153.16 764H3123.16V1077H3153.16H3183.16V764H3153.16ZM3153.16 1077L3140.71 1049.71C3104.56 1066.19 3067.9 1078.51 3030.71 1086.7L3037.16 1116L3043.62 1145.3C3085.09 1136.16 3125.76 1122.47 3165.61 1104.29L3153.16 1077ZM3037.16 1116L3030.71 1086.7C2993.33 1094.94 2957.16 1099 2922.16 1099V1129V1159C2961.83 1159 3002.33 1154.39 3043.62 1145.3L3037.16 1116ZM3450.88 1113H3420.88V1143H3450.88V1113ZM3450.88 583H3480.88V553H3450.88V583ZM3295.88 583H3265.88V613H3295.88V583ZM3295.88 425V395H3265.88V425H3295.88ZM3838.88 425H3868.88V395H3838.88V425ZM3838.88 583V613H3868.88V583H3838.88ZM3683.88 583V553H3653.88V583H3683.88ZM3683.88 1113V1143H3713.88V1113H3683.88ZM3450.88 1113H3480.88V583H3450.88H3420.88V1113H3450.88ZM3450.88 583V553H3295.88V583V613H3450.88V583ZM3295.88 583H3325.88V425H3295.88H3265.88V583H3295.88ZM3295.88 425V455H3838.88V425V395H3295.88V425ZM3838.88 425H3808.88V583H3838.88H3868.88V425H3838.88ZM3838.88 583V553H3683.88V583V613H3838.88V583ZM3683.88 583H3653.88V1113H3683.88H3713.88V583H3683.88ZM3683.88 1113V1083H3450.88V1113V1143H3683.88V1113ZM4413.48 1108L4400.76 1135.17L4401 1135.28L4401.24 1135.39L4413.48 1108ZM4338.48 1048L4362.63 1030.2L4362.63 1030.2L4338.48 1048ZM4296.48 959L4325.41 951.058L4325.41 951.058L4296.48 959ZM4277.48 849L4307.37 846.467L4305.04 819H4277.48V849ZM4230.48 849V819H4200.48V849H4230.48ZM4230.48 1113V1143H4260.48V1113H4230.48ZM4011.48 1113H3981.48V1143H4011.48V1113ZM4011.48 425V395H3981.48V425H4011.48ZM4530.48 483L4511.66 506.363L4511.83 506.505L4512.01 506.646L4530.48 483ZM4571.48 744L4596.1 761.132L4596.19 761.008L4596.27 760.884L4571.48 744ZM4468.48 821L4456.47 793.506L4434.71 803.007L4438.96 826.367L4468.48 821ZM4475.48 857L4504.81 850.714L4504.81 850.714L4475.48 857ZM4484.48 888L4456.19 897.985L4456.22 898.087L4456.26 898.189L4484.48 888ZM4516.48 938L4498.68 962.152L4498.97 962.368L4499.27 962.577L4516.48 938ZM4614.48 946L4644.4 943.811L4641.74 907.47L4606.58 917.057L4614.48 946ZM4626.48 1110L4637.62 1137.85L4658 1129.7L4656.4 1107.81L4626.48 1110ZM4583.48 1123L4577.1 1093.68L4576.34 1093.85L4575.58 1094.06L4583.48 1123ZM4230.48 712H4200.48V742H4230.48V712ZM4372.48 696L4386.59 722.471L4386.75 722.388L4386.9 722.304L4372.48 696ZM4378.48 590L4362.3 615.268L4362.67 615.502L4363.04 615.725L4378.48 590ZM4230.48 574V544H4200.48V574H4230.48ZM4532.48 1129V1099C4487.12 1099 4451.98 1092.35 4425.71 1080.61L4413.48 1108L4401.24 1135.39C4437.63 1151.65 4481.83 1159 4532.48 1159V1129ZM4413.48 1108L4426.19 1080.83C4398.93 1068.07 4378.04 1051.12 4362.63 1030.2L4338.48 1048L4314.32 1065.8C4336.25 1095.55 4365.35 1118.6 4400.76 1135.17L4413.48 1108ZM4338.48 1048L4362.63 1030.2C4346.39 1008.17 4333.88 981.934 4325.41 951.058L4296.48 959L4267.55 966.941C4277.74 1004.07 4293.23 1037.16 4314.32 1065.8L4338.48 1048ZM4296.48 959L4325.41 951.058C4316.61 919.023 4310.56 884.185 4307.37 846.467L4277.48 849L4247.58 851.533C4251.05 892.482 4257.67 930.977 4267.55 966.941L4296.48 959ZM4277.48 849V819H4230.48V849V879H4277.48V849ZM4230.48 849H4200.48V1113H4230.48H4260.48V849H4230.48ZM4230.48 1113V1083H4011.48V1113V1143H4230.48V1113ZM4011.48 1113H4041.48V425H4011.48H3981.48V1113H4011.48ZM4011.48 425V455H4294.48V425V395H4011.48V425ZM4294.48 425V455C4401.69 455 4471.77 474.234 4511.66 506.363L4530.48 483L4549.3 459.637C4493.18 414.433 4405.92 395 4294.48 395V425ZM4530.48 483L4512.01 506.646C4552.92 538.588 4573.48 581.283 4573.48 638H4603.48H4633.48C4633.48 564.051 4605.36 503.412 4548.94 459.354L4530.48 483ZM4603.48 638H4573.48C4573.48 671.551 4564.49 700.956 4546.68 727.116L4571.48 744L4596.27 760.884C4621.13 724.377 4633.48 683.115 4633.48 638H4603.48ZM4571.48 744L4546.85 726.868C4529.67 751.556 4500.59 774.245 4456.47 793.506L4468.48 821L4480.48 848.494C4531.03 826.422 4570.61 797.777 4596.1 761.132L4571.48 744ZM4468.48 821L4438.96 826.367C4441.65 841.191 4444.05 853.528 4446.14 863.286L4475.48 857L4504.81 850.714C4502.9 841.806 4500.63 830.142 4497.99 815.633L4468.48 821ZM4475.48 857L4446.14 863.286C4448.47 874.145 4451.86 885.736 4456.19 897.985L4484.48 888L4512.77 878.015C4509.09 867.597 4506.48 858.522 4504.81 850.714L4475.48 857ZM4484.48 888L4456.26 898.189C4465.8 924.616 4479.1 947.728 4498.68 962.152L4516.48 938L4534.27 913.848C4528.51 909.605 4520.48 899.384 4512.69 877.811L4484.48 888ZM4516.48 938L4499.27 962.577C4519.28 976.581 4544 982 4570.48 982V952V922C4551.62 922 4540.34 918.086 4533.68 913.423L4516.48 938ZM4570.48 952V982C4587.9 982 4605.22 979.619 4622.37 974.943L4614.48 946L4606.58 917.057C4594.39 920.381 4582.38 922 4570.48 922V952ZM4614.48 946L4584.56 948.189L4596.56 1112.19L4626.48 1110L4656.4 1107.81L4644.4 943.811L4614.48 946ZM4626.48 1110L4615.33 1082.15C4603.68 1086.81 4590.96 1090.67 4577.1 1093.68L4583.48 1123L4589.85 1152.32C4606.66 1148.66 4622.6 1143.86 4637.62 1137.85L4626.48 1110ZM4583.48 1123L4575.58 1094.06C4564.07 1097.2 4549.83 1099 4532.48 1099V1129V1159C4553.79 1159 4573.54 1156.8 4591.37 1151.94L4583.48 1123ZM4230.48 712V742H4268.48V712V682H4230.48V712ZM4268.48 712V742C4318.23 742 4359.51 736.913 4386.59 722.471L4372.48 696L4358.36 669.529C4345.44 676.42 4317.39 682 4268.48 682V712ZM4372.48 696L4386.9 722.304C4418.61 704.914 4433.48 674.873 4433.48 639H4403.48H4373.48C4373.48 656.46 4367.67 664.419 4358.05 669.696L4372.48 696ZM4403.48 639H4433.48C4433.48 607.867 4421.26 580.684 4393.91 564.275L4378.48 590L4363.04 615.725C4369.03 619.316 4373.48 624.8 4373.48 639H4403.48ZM4378.48 590L4394.65 564.732C4370.61 549.348 4337.16 544 4299.48 544V574V604C4333.79 604 4353.01 609.319 4362.3 615.268L4378.48 590ZM4299.48 574V544H4230.48V574V604H4299.48V574ZM4230.48 574H4200.48V712H4230.48H4260.48V574H4230.48ZM4797.26 1113H4767.26V1143H4797.26V1113ZM4797.26 425V395H4767.26V425H4797.26ZM5023.26 425H5053.26V395H5023.26V425ZM5023.26 1113V1143H5053.26V1113H5023.26ZM4797.26 1113H4827.26V425H4797.26H4767.26V1113H4797.26ZM4797.26 425V455H5023.26V425V395H4797.26V425ZM5023.26 425H4993.26V1113H5023.26H5053.26V425H5023.26ZM5023.26 1113V1083H4797.26V1113V1143H5023.26V1113ZM5391.19 1113L5362.43 1121.53L5368.8 1143H5391.19V1113ZM5187.19 425V395H5147.01L5158.43 433.528L5187.19 425ZM5423.19 425L5452.32 417.804L5446.68 395H5423.19V425ZM5529.19 854L5500.07 861.196H5558.32L5529.19 854ZM5635.19 425V395H5611.7L5606.07 417.804L5635.19 425ZM5861.19 425L5889.83 433.948L5902 395H5861.19V425ZM5646.19 1113V1143H5668.25L5674.83 1121.95L5646.19 1113ZM5391.19 1113L5419.96 1104.47L5215.96 416.472L5187.19 425L5158.43 433.528L5362.43 1121.53L5391.19 1113ZM5187.19 425V455H5423.19V425V395H5187.19V425ZM5423.19 425L5394.07 432.196L5500.07 861.196L5529.19 854L5558.32 846.804L5452.32 417.804L5423.19 425ZM5529.19 854L5558.32 861.196L5664.32 432.196L5635.19 425L5606.07 417.804L5500.07 846.804L5529.19 854ZM5635.19 425V455H5861.19V425V395H5635.19V425ZM5861.19 425L5832.56 416.052L5617.56 1104.05L5646.19 1113L5674.83 1121.95L5889.83 433.948L5861.19 425ZM5646.19 1113V1083H5391.19V1113V1143H5646.19V1113Z" fill="black" mask="url(#path-4-outside-1_8_109)"/>
</g>
<rect x="15" y="15" width="6370" height="1388" rx="694" stroke="black" stroke-width="30"/>
<defs>
<clipPath id="clip0_8_109">
<rect width="6400" height="1418" rx="709" fill="white"/>
</clipPath>
</defs>
</svg>