<svg width="1418" height="1418" viewBox="0 0 1418 1418" fill="none" xmlns="http://www.w3.org/2000/svg">
<g clip-path="url(#clip0_8_73)">
<rect width="1418" height="1418" rx="709" fill="#FFFC00"/>
<path d="M0 0C467.94 0 935.88 0 1418 0C1418 467.94 1418 935.88 1418 1418C950.06 1418 482.12 1418 0 1418C0 950.06 0 482.12 0 0Z" fill="#FFFC00"/>
<mask id="path-4-outside-1_8_73" maskUnits="userSpaceOnUse" x="456" y="376" width="535" height="748" fill="black">
<rect fill="white" x="456" y="376" width="535" height="748"/>
<path d="M486.168 1094V406H960.168V558H701.168V697H941.168V831H701.168V1094H486.168Z"/>
</mask>
<path d="M486.168 1094V406H960.168V558H701.168V697H941.168V831H701.168V1094H486.168Z" fill="white"/>
<path d="M486.168 1094H456.168V1124H486.168V1094ZM486.168 406V376H456.168V406H486.168ZM960.168 406H990.168V376H960.168V406ZM960.168 558V588H990.168V558H960.168ZM701.168 558V528H671.168V558H701.168ZM701.168 697H671.168V727H701.168V697ZM941.168 697H971.168V667H941.168V697ZM941.168 831V861H971.168V831H941.168ZM701.168 831V801H671.168V831H701.168ZM701.168 1094V1124H731.168V1094H701.168ZM486.168 1094H516.168V406H486.168H456.168V1094H486.168ZM486.168 406V436H960.168V406V376H486.168V406ZM960.168 406H930.168V558H960.168H990.168V406H960.168ZM960.168 558V528H701.168V558V588H960.168V558ZM701.168 558H671.168V697H701.168H731.168V558H701.168ZM701.168 697V727H941.168V697V667H701.168V697ZM941.168 697H911.168V831H941.168H971.168V697H941.168ZM941.168 831V801H701.168V831V861H941.168V831ZM701.168 831H671.168V1094H701.168H731.168V831H701.168ZM701.168 1094V1064H486.168V1094V1124H701.168V1094Z" fill="black" mask="url(#path-4-outside-1_8_73)"/>
</g>
<rect x="15" y="15" width="1388" height="1388" rx="694" stroke="black" stroke-width="30"/>
<defs>
<clipPath id="clip0_8_73">
<rect width="1418" height="1418" rx="709" fill="white"/>
</clipPath>
</defs>
</svg>
