<svg width="1024" height="1024" viewBox="0 0 1024 1024" fill="none" xmlns="http://www.w3.org/2000/svg">
<rect width="1024" height="1024" rx="48" fill="#AADCDD"/>
<path d="M162 250H844.667V506V762H162V250Z" fill="#FF3008"/>
<path d="M498.698 376.497C499.161 371.673 506.199 371.673 506.662 376.497L511.399 425.871C511.794 429.983 517.404 430.872 519.05 427.083L538.813 381.589C540.744 377.144 547.437 379.319 546.387 384.05L535.635 432.472C534.739 436.505 539.8 439.083 542.536 435.988L575.391 398.828C578.6 395.198 584.294 399.334 581.833 403.509L556.644 446.238C554.547 449.797 558.563 453.813 562.122 451.716L604.851 426.527C609.026 424.066 613.162 429.76 609.532 432.969L572.372 465.824C569.277 468.56 571.855 473.621 575.888 472.725L624.31 461.973C629.041 460.923 631.216 467.616 626.771 469.547L581.277 489.31C577.488 490.956 578.377 496.566 582.489 496.961L631.863 501.698C636.687 502.161 636.687 509.199 631.863 509.662L582.489 514.399C578.377 514.794 577.488 520.404 581.277 522.05L626.771 541.813C631.216 543.744 629.041 550.437 624.31 549.387L575.888 538.635C571.855 537.739 569.277 542.8 572.372 545.536L609.532 578.391C613.162 581.6 609.026 587.294 604.851 584.833L562.122 559.644C558.563 557.547 554.547 561.563 556.644 565.122L581.833 607.851C584.294 612.026 578.6 616.162 575.391 612.532L542.536 575.372C539.8 572.277 534.739 574.855 535.635 578.888L546.387 627.31C547.437 632.041 540.744 634.216 538.813 629.771L519.05 584.277C517.404 580.488 511.794 581.377 511.399 585.489L506.662 634.863C506.199 639.687 499.161 639.687 498.698 634.863L493.961 585.489C493.566 581.377 487.956 580.488 486.31 584.277L466.547 629.771C464.616 634.216 457.923 632.041 458.973 627.31L469.725 578.888C470.621 574.855 465.56 572.277 462.824 575.372L429.969 612.532C426.76 616.162 421.066 612.026 423.527 607.851L448.716 565.122C450.813 561.563 446.797 557.547 443.238 559.644L400.509 584.833C396.334 587.294 392.198 581.6 395.828 578.391L432.988 545.536C436.083 542.8 433.505 537.739 429.472 538.635L381.05 549.387C376.319 550.437 374.144 543.744 378.589 541.813L424.083 522.05C427.872 520.404 426.983 514.794 422.871 514.399L373.497 509.662C368.673 509.199 368.673 502.161 373.497 501.698L422.871 496.961C426.983 496.566 427.872 490.956 424.083 489.31L378.589 469.547C374.144 467.616 376.319 460.923 381.05 461.973L429.472 472.725C433.505 473.621 436.083 468.56 432.988 465.824L395.828 432.969C392.198 429.76 396.334 424.066 400.509 426.527L443.238 451.716C446.797 453.813 450.813 449.797 448.716 446.238L423.527 403.509C421.066 399.334 426.76 395.198 429.969 398.828L462.824 435.988C465.56 439.083 470.621 436.505 469.725 432.472L458.973 384.05C457.923 379.319 464.616 377.144 466.547 381.589L486.31 427.083C487.956 430.872 493.566 429.983 493.961 425.871L498.698 376.497Z" fill="#F5C159"/>
</svg>
